<?xml version="1.0" encoding="UTF-8" standalone="no"?>
<!-- Generator: Adobe Illustrator 18.1.1, SVG Export Plug-In . SVG Version: 6.00 Build 0)  -->

<svg
   xmlns:dc="http://purl.org/dc/elements/1.1/"
   xmlns:cc="http://creativecommons.org/ns#"
   xmlns:rdf="http://www.w3.org/1999/02/22-rdf-syntax-ns#"
   xmlns:svg="http://www.w3.org/2000/svg"
   xmlns="http://www.w3.org/2000/svg"
   xmlns:sodipodi="http://sodipodi.sourceforge.net/DTD/sodipodi-0.dtd"
   xmlns:inkscape="http://www.inkscape.org/namespaces/inkscape"
   version="1.1"
   id="Capa_1"
   x="0px"
   y="0px"
   viewBox="0 0 27.709 27.709"
   style="enable-background:new 0 0 27.709 27.709;"
   xml:space="preserve"
   inkscape:version="0.91 r13725"
   sodipodi:docname="display_hover.svg"><metadata
     id="metadata3611"><rdf:RDF><cc:Work
         rdf:about=""><dc:format>image/svg+xml</dc:format><dc:type
           rdf:resource="http://purl.org/dc/dcmitype/StillImage" /><dc:title></dc:title></cc:Work></rdf:RDF></metadata><defs
     id="defs3609" /><sodipodi:namedview
     pagecolor="#ffffff"
     bordercolor="#666666"
     borderopacity="1"
     objecttolerance="10"
     gridtolerance="10"
     guidetolerance="10"
     inkscape:pageopacity="0"
     inkscape:pageshadow="2"
     inkscape:window-width="1301"
     inkscape:window-height="744"
     id="namedview3607"
     showgrid="false"
     inkscape:zoom="21.90624"
     inkscape:cx="13.8545"
     inkscape:cy="13.854499"
     inkscape:window-x="65"
     inkscape:window-y="24"
     inkscape:window-maximized="1"
     inkscape:current-layer="Capa_1" /><g
     id="g3577" /><g
     id="g3579" /><g
     id="g3581" /><g
     id="g3583" /><g
     id="g3585" /><g
     id="g3587" /><g
     id="g3589" /><g
     id="g3591" /><g
     id="g3593" /><g
     id="g3595" /><g
     id="g3597" /><g
     id="g3599" /><g
     id="g3601" /><g
     id="g3603" /><g
     id="g3605" /><path
     style="fill:#1a1a1a"
     d="m 23.851652,1.0453647 3.195436,0 0,3.195436 0,3.195437 -3.195436,0 -3.195437,0 0,-3.195437 0,-3.195436 3.195437,0 z"
     id="path3548"
     inkscape:connector-curvature="0" /><path
     inkscape:connector-curvature="0"
     id="path3550"
     d="m 16.776042,4.2408017 0,3.195436 -3.195436,0 -3.195437,0 0,-3.195436 0,-3.195437 3.195437,0 3.195436,0 0,3.195437 z"
     style="fill:#1a1a1a" /><path
     style="fill:#1a1a1a"
     d="m 3.6291036,1.0453647 3.195436,0 0,3.195436 0,3.195437 -3.195436,0 -3.195437,0 0,-3.195437 0,-3.195436 3.195437,0 z"
     id="path3552"
     inkscape:connector-curvature="0" /><path
     inkscape:connector-curvature="0"
     id="path3554"
     d="m 23.851652,10.768622 3.195436,0 0,3.195436 0,3.195437 -3.195436,0 -3.195437,0 0,-3.195437 0,-3.195436 3.195437,0 z"
     style="fill:#1a1a1a" /><path
     style="fill:#1a1a1a"
     d="m 13.580606,10.768622 3.195436,0 0,3.195436 0,3.195437 -3.195436,0 -3.195437,0 0,-3.195437 0,-3.195436 3.195437,0 z"
     id="path3556"
     inkscape:connector-curvature="0" /><path
     inkscape:connector-curvature="0"
     id="path3558"
     d="m 3.6291036,10.768622 3.195436,0 0,3.195436 0,3.195437 -3.195436,0 -3.195437,0 0,-3.195437 0,-3.195436 3.195437,0 z"
     style="fill:#1a1a1a" /><path
     style="fill:#1a1a1a"
     d="m 23.851652,20.263633 3.195436,0 0,3.195436 0,3.195437 -3.195436,0 -3.195437,0 0,-3.195437 0,-3.195436 3.195437,0 z"
     id="path3560"
     inkscape:connector-curvature="0" /><path
     inkscape:connector-curvature="0"
     id="path3562"
     d="m 13.580606,20.263633 3.195436,0 0,3.195436 0,3.195437 -3.195436,0 -3.195437,0 0,-3.195437 0,-3.195436 3.195437,0 z"
     style="fill:#1a1a1a" /><path
     style="fill:#1a1a1a"
     d="m 3.6291036,20.263633 3.195436,0 0,3.195436 0,3.195437 -3.195436,0 -3.195437,0 0,-3.195437 0,-3.195436 3.195437,0 z"
     id="path3564"
     inkscape:connector-curvature="0" /></svg>